<mxfile host="app.diagrams.net" agent="Mozilla/5.0 (Windows NT 10.0; Win64; x64; rv:142.0) Gecko/20100101 Firefox/142.0" version="28.2.0">
  <diagram name="Page-1" id="siEM5TWR_u8KWLn8t2EC">
    <mxGraphModel dx="1042" dy="1663" grid="1" gridSize="10" guides="1" tooltips="1" connect="1" arrows="1" fold="1" page="1" pageScale="1" pageWidth="850" pageHeight="1100" math="0" shadow="0">
      <root>
        <mxCell id="0" />
        <mxCell id="1" parent="0" />
        <mxCell id="XW792IibJ0q6MfEuAsvZ-4" value="" style="endArrow=none;html=1;rounded=0;" edge="1" parent="1">
          <mxGeometry width="50" height="50" relative="1" as="geometry">
            <mxPoint x="120" y="240" as="sourcePoint" />
            <mxPoint x="760" y="240" as="targetPoint" />
          </mxGeometry>
        </mxCell>
        <mxCell id="XW792IibJ0q6MfEuAsvZ-5" value="&lt;div&gt;Frontend&lt;/div&gt;" style="text;html=1;align=center;verticalAlign=middle;resizable=0;points=[];autosize=1;strokeColor=none;fillColor=none;" vertex="1" parent="1">
          <mxGeometry x="685" y="200" width="70" height="30" as="geometry" />
        </mxCell>
        <mxCell id="XW792IibJ0q6MfEuAsvZ-6" value="" style="endArrow=none;html=1;rounded=0;" edge="1" parent="1">
          <mxGeometry width="50" height="50" relative="1" as="geometry">
            <mxPoint x="115" y="640" as="sourcePoint" />
            <mxPoint x="755" y="640" as="targetPoint" />
          </mxGeometry>
        </mxCell>
        <mxCell id="XW792IibJ0q6MfEuAsvZ-7" value="Backend" style="text;html=1;align=center;verticalAlign=middle;resizable=0;points=[];autosize=1;strokeColor=none;fillColor=none;" vertex="1" parent="1">
          <mxGeometry x="670" y="590" width="70" height="30" as="geometry" />
        </mxCell>
        <mxCell id="XW792IibJ0q6MfEuAsvZ-8" value="" style="endArrow=none;html=1;rounded=0;" edge="1" parent="1">
          <mxGeometry width="50" height="50" relative="1" as="geometry">
            <mxPoint x="115" y="780" as="sourcePoint" />
            <mxPoint x="755" y="780" as="targetPoint" />
          </mxGeometry>
        </mxCell>
        <mxCell id="XW792IibJ0q6MfEuAsvZ-9" value="&lt;div&gt;Database&lt;/div&gt;" style="text;html=1;align=center;verticalAlign=middle;resizable=0;points=[];autosize=1;strokeColor=none;fillColor=none;" vertex="1" parent="1">
          <mxGeometry x="670" y="650" width="70" height="30" as="geometry" />
        </mxCell>
        <mxCell id="XW792IibJ0q6MfEuAsvZ-16" style="edgeStyle=orthogonalEdgeStyle;rounded=0;orthogonalLoop=1;jettySize=auto;html=1;exitX=0.5;exitY=1;exitDx=0;exitDy=0;entryX=0.5;entryY=0;entryDx=0;entryDy=0;" edge="1" parent="1" source="XW792IibJ0q6MfEuAsvZ-10" target="XW792IibJ0q6MfEuAsvZ-12">
          <mxGeometry relative="1" as="geometry" />
        </mxCell>
        <mxCell id="XW792IibJ0q6MfEuAsvZ-10" value="&lt;div&gt;Admin&lt;/div&gt;" style="ellipse;whiteSpace=wrap;html=1;aspect=fixed;" vertex="1" parent="1">
          <mxGeometry x="225" y="-40" width="70" height="70" as="geometry" />
        </mxCell>
        <mxCell id="XW792IibJ0q6MfEuAsvZ-17" style="edgeStyle=orthogonalEdgeStyle;rounded=0;orthogonalLoop=1;jettySize=auto;html=1;exitX=0.5;exitY=1;exitDx=0;exitDy=0;entryX=0.5;entryY=0;entryDx=0;entryDy=0;" edge="1" parent="1" source="XW792IibJ0q6MfEuAsvZ-11" target="XW792IibJ0q6MfEuAsvZ-13">
          <mxGeometry relative="1" as="geometry" />
        </mxCell>
        <mxCell id="XW792IibJ0q6MfEuAsvZ-11" value="User" style="ellipse;whiteSpace=wrap;html=1;aspect=fixed;" vertex="1" parent="1">
          <mxGeometry x="545" y="-40" width="70" height="70" as="geometry" />
        </mxCell>
        <mxCell id="XW792IibJ0q6MfEuAsvZ-24" style="edgeStyle=orthogonalEdgeStyle;rounded=0;orthogonalLoop=1;jettySize=auto;html=1;exitX=0.5;exitY=1;exitDx=0;exitDy=0;entryX=0.5;entryY=0;entryDx=0;entryDy=0;" edge="1" parent="1" source="XW792IibJ0q6MfEuAsvZ-12" target="XW792IibJ0q6MfEuAsvZ-21">
          <mxGeometry relative="1" as="geometry" />
        </mxCell>
        <mxCell id="XW792IibJ0q6MfEuAsvZ-12" value="Admin Dashboard" style="rounded=1;whiteSpace=wrap;html=1;" vertex="1" parent="1">
          <mxGeometry x="200" y="160" width="120" height="60" as="geometry" />
        </mxCell>
        <mxCell id="XW792IibJ0q6MfEuAsvZ-26" style="edgeStyle=orthogonalEdgeStyle;rounded=0;orthogonalLoop=1;jettySize=auto;html=1;exitX=0.5;exitY=1;exitDx=0;exitDy=0;entryX=0.5;entryY=0;entryDx=0;entryDy=0;" edge="1" parent="1" source="XW792IibJ0q6MfEuAsvZ-13" target="XW792IibJ0q6MfEuAsvZ-22">
          <mxGeometry relative="1" as="geometry" />
        </mxCell>
        <mxCell id="XW792IibJ0q6MfEuAsvZ-13" value="User Dashboard" style="rounded=1;whiteSpace=wrap;html=1;" vertex="1" parent="1">
          <mxGeometry x="520" y="160" width="120" height="60" as="geometry" />
        </mxCell>
        <mxCell id="XW792IibJ0q6MfEuAsvZ-20" style="edgeStyle=orthogonalEdgeStyle;rounded=0;orthogonalLoop=1;jettySize=auto;html=1;exitX=0.5;exitY=1;exitDx=0;exitDy=0;entryX=0.5;entryY=0;entryDx=0;entryDy=0;" edge="1" parent="1" source="XW792IibJ0q6MfEuAsvZ-18" target="XW792IibJ0q6MfEuAsvZ-19">
          <mxGeometry relative="1" as="geometry" />
        </mxCell>
        <mxCell id="XW792IibJ0q6MfEuAsvZ-18" value="Agents" style="ellipse;whiteSpace=wrap;html=1;aspect=fixed;" vertex="1" parent="1">
          <mxGeometry x="390" y="-40" width="70" height="70" as="geometry" />
        </mxCell>
        <mxCell id="XW792IibJ0q6MfEuAsvZ-25" style="edgeStyle=orthogonalEdgeStyle;rounded=0;orthogonalLoop=1;jettySize=auto;html=1;exitX=0.5;exitY=1;exitDx=0;exitDy=0;entryX=0.5;entryY=0;entryDx=0;entryDy=0;" edge="1" parent="1" source="XW792IibJ0q6MfEuAsvZ-19" target="XW792IibJ0q6MfEuAsvZ-23">
          <mxGeometry relative="1" as="geometry" />
        </mxCell>
        <mxCell id="XW792IibJ0q6MfEuAsvZ-19" value="&lt;div&gt;Agent Dashboard&lt;/div&gt;" style="rounded=1;whiteSpace=wrap;html=1;" vertex="1" parent="1">
          <mxGeometry x="365" y="160" width="120" height="60" as="geometry" />
        </mxCell>
        <mxCell id="XW792IibJ0q6MfEuAsvZ-31" style="edgeStyle=orthogonalEdgeStyle;rounded=0;orthogonalLoop=1;jettySize=auto;html=1;exitX=0.5;exitY=1;exitDx=0;exitDy=0;" edge="1" parent="1" source="XW792IibJ0q6MfEuAsvZ-21" target="XW792IibJ0q6MfEuAsvZ-28">
          <mxGeometry relative="1" as="geometry" />
        </mxCell>
        <mxCell id="XW792IibJ0q6MfEuAsvZ-21" value="&lt;div&gt;Request Process&lt;/div&gt;&lt;div&gt;Vanilla Java&lt;/div&gt;" style="rounded=1;whiteSpace=wrap;html=1;" vertex="1" parent="1">
          <mxGeometry x="200" y="290" width="120" height="60" as="geometry" />
        </mxCell>
        <mxCell id="XW792IibJ0q6MfEuAsvZ-34" style="edgeStyle=orthogonalEdgeStyle;rounded=0;orthogonalLoop=1;jettySize=auto;html=1;exitX=0.5;exitY=1;exitDx=0;exitDy=0;entryX=0.5;entryY=0;entryDx=0;entryDy=0;" edge="1" parent="1" source="XW792IibJ0q6MfEuAsvZ-22" target="XW792IibJ0q6MfEuAsvZ-28">
          <mxGeometry relative="1" as="geometry" />
        </mxCell>
        <mxCell id="XW792IibJ0q6MfEuAsvZ-22" value="&lt;div&gt;Request Process&lt;/div&gt;&lt;div&gt;Vanilla Java&lt;/div&gt;" style="rounded=1;whiteSpace=wrap;html=1;" vertex="1" parent="1">
          <mxGeometry x="520" y="290" width="120" height="60" as="geometry" />
        </mxCell>
        <mxCell id="XW792IibJ0q6MfEuAsvZ-32" style="edgeStyle=orthogonalEdgeStyle;rounded=0;orthogonalLoop=1;jettySize=auto;html=1;exitX=0.5;exitY=1;exitDx=0;exitDy=0;entryX=0.5;entryY=0;entryDx=0;entryDy=0;" edge="1" parent="1" source="XW792IibJ0q6MfEuAsvZ-23" target="XW792IibJ0q6MfEuAsvZ-28">
          <mxGeometry relative="1" as="geometry" />
        </mxCell>
        <mxCell id="XW792IibJ0q6MfEuAsvZ-23" value="&lt;div&gt;Request Process&lt;/div&gt;&lt;div&gt;Vanilla Java&lt;/div&gt;" style="rounded=1;whiteSpace=wrap;html=1;" vertex="1" parent="1">
          <mxGeometry x="365" y="290" width="120" height="60" as="geometry" />
        </mxCell>
        <mxCell id="XW792IibJ0q6MfEuAsvZ-43" style="edgeStyle=orthogonalEdgeStyle;rounded=0;orthogonalLoop=1;jettySize=auto;html=1;exitX=1;exitY=0.5;exitDx=0;exitDy=0;entryX=1;entryY=0.5;entryDx=0;entryDy=0;" edge="1" parent="1" source="XW792IibJ0q6MfEuAsvZ-27" target="XW792IibJ0q6MfEuAsvZ-13">
          <mxGeometry relative="1" as="geometry" />
        </mxCell>
        <mxCell id="XW792IibJ0q6MfEuAsvZ-44" style="edgeStyle=orthogonalEdgeStyle;rounded=0;orthogonalLoop=1;jettySize=auto;html=1;exitX=0.5;exitY=0;exitDx=0;exitDy=0;entryX=0;entryY=0.5;entryDx=0;entryDy=0;" edge="1" parent="1" source="XW792IibJ0q6MfEuAsvZ-27" target="XW792IibJ0q6MfEuAsvZ-19">
          <mxGeometry relative="1" as="geometry" />
        </mxCell>
        <mxCell id="XW792IibJ0q6MfEuAsvZ-46" style="edgeStyle=orthogonalEdgeStyle;rounded=0;orthogonalLoop=1;jettySize=auto;html=1;exitX=0;exitY=0.5;exitDx=0;exitDy=0;entryX=0;entryY=0.5;entryDx=0;entryDy=0;" edge="1" parent="1" source="XW792IibJ0q6MfEuAsvZ-27" target="XW792IibJ0q6MfEuAsvZ-12">
          <mxGeometry relative="1" as="geometry" />
        </mxCell>
        <mxCell id="XW792IibJ0q6MfEuAsvZ-27" value="&lt;div&gt;Response&lt;/div&gt;&lt;div&gt;Vanilla Java&lt;/div&gt;" style="rounded=1;whiteSpace=wrap;html=1;" vertex="1" parent="1">
          <mxGeometry x="280" y="450" width="120" height="60" as="geometry" />
        </mxCell>
        <mxCell id="XW792IibJ0q6MfEuAsvZ-38" style="edgeStyle=orthogonalEdgeStyle;rounded=0;orthogonalLoop=1;jettySize=auto;html=1;exitX=0.5;exitY=1;exitDx=0;exitDy=0;entryX=0.75;entryY=0;entryDx=0;entryDy=0;" edge="1" parent="1" source="XW792IibJ0q6MfEuAsvZ-28" target="XW792IibJ0q6MfEuAsvZ-36">
          <mxGeometry relative="1" as="geometry">
            <mxPoint x="440" y="680" as="targetPoint" />
          </mxGeometry>
        </mxCell>
        <mxCell id="XW792IibJ0q6MfEuAsvZ-28" value="JDBC" style="rounded=1;whiteSpace=wrap;html=1;" vertex="1" parent="1">
          <mxGeometry x="440" y="450" width="120" height="60" as="geometry" />
        </mxCell>
        <mxCell id="XW792IibJ0q6MfEuAsvZ-33" style="edgeStyle=orthogonalEdgeStyle;rounded=0;orthogonalLoop=1;jettySize=auto;html=1;exitX=0.5;exitY=1;exitDx=0;exitDy=0;" edge="1" parent="1" source="XW792IibJ0q6MfEuAsvZ-22" target="XW792IibJ0q6MfEuAsvZ-22">
          <mxGeometry relative="1" as="geometry" />
        </mxCell>
        <mxCell id="XW792IibJ0q6MfEuAsvZ-40" style="edgeStyle=orthogonalEdgeStyle;rounded=0;orthogonalLoop=1;jettySize=auto;html=1;exitX=0.25;exitY=0;exitDx=0;exitDy=0;entryX=0.5;entryY=1;entryDx=0;entryDy=0;" edge="1" parent="1" source="XW792IibJ0q6MfEuAsvZ-36" target="XW792IibJ0q6MfEuAsvZ-27">
          <mxGeometry relative="1" as="geometry" />
        </mxCell>
        <mxCell id="XW792IibJ0q6MfEuAsvZ-36" value="" style="rounded=1;whiteSpace=wrap;html=1;" vertex="1" parent="1">
          <mxGeometry x="365" y="690" width="120" height="60" as="geometry" />
        </mxCell>
      </root>
    </mxGraphModel>
  </diagram>
</mxfile>
